<?xml version="1.0" standalone="no"?>
<!DOCTYPE svg PUBLIC "-//W3C//DTD SVG 20010904//EN"
 "http://www.w3.org/TR/2001/REC-SVG-20010904/DTD/svg10.dtd">
<svg version="1.0" xmlns="http://www.w3.org/2000/svg"
 width="54.000000pt" height="60.000000pt" viewBox="0 0 254.000000 260.000000"
 preserveAspectRatio="xMidYMid meet">

<g transform="translate(0.000000,260.000000) scale(0.100000,-0.100000)"
fill="#ef3f33" stroke="none">
<path d="M0 2361 l0 -221 469 0 c416 0 482 -2 592 -20 206 -32 312 -72 472
-178 109 -73 219 -203 267 -318 12 -27 25 -57 30 -66 9 -15 21 -77 38 -193 4
-29 2 -89 -5 -145 -20 -149 -66 -260 -154 -375 -153 -200 -361 -318 -647 -366
-100 -17 -167 -19 -588 -19 l-474 0 0 -221 0 -220 583 4 c543 3 590 5 697 25
155 29 330 78 420 119 143 64 271 136 351 199 127 101 290 294 348 414 86 178
112 280 118 477 7 207 -3 270 -69 446 -77 206 -233 406 -423 542 -219 157
-443 245 -780 307 -112 20 -156 22 -682 26 l-563 3 0 -220z"/>
</g>
</svg>
