<svg id="D_Imagem" data-name="D Imagem" xmlns="http://www.w3.org/2000/svg" viewBox="0 0 358.02 404.98"><defs>
<style>.cls-1{fill:#ef3f33;}.cls-2{font-size:36px;fill:#fff;font-family:ArialRoundedMTBold, Arial Rounded MT Bold;}</style>
</defs><title>Desconto facil logo</title>
<path class="cls-1" d="M43.21,321.16V265.63c18.09.13,36.18.55,54.26.32,23.7-.31,47.51.19,71.05-2.07a115.28,115.28,0,0,0,
72.57-34.43c38.73-39.15,35.37-101.94-7.42-136.5-22.48-18.16-48.86-26.39-77.06-27.25-37.77-1.16-75.6-.39-113.4-.44V9.73c38.57.12,
77.17-.46,115.72.55s75.73,9.07,109.78,28c42.45,23.63,70.59,58.09,78.87,107.05.72,4.28,1.49,8.56,2.23,12.84v14.49a19.82,19.82,0,0,0-1.19,
3.87c-4,41.7-23.42,75-55.88,100.81-36.8,29.22-80,41.49-126,43.15C125.61,322,84.39,321,43.21,321.16Z" 
transform="translate(-5.31 -9.67)"/>
<text class="cls-2" transform="translate(9.08 346.64)">Desconto Fácil App</text></svg>