<?xml version="1.0" standalone="no"?>
<!DOCTYPE svg PUBLIC "-//W3C//DTD SVG 20010904//EN"
 "http://www.w3.org/TR/2001/REC-SVG-20010904/DTD/svg10.dtd">
<svg version="1.0" xmlns="http://www.w3.org/2000/svg"
 width="112.000000pt" height="112.000000pt" viewBox="0 0 412.000000 412.000000"
 preserveAspectRatio="xMidYMid meet">

<g transform="translate(0.000000,512.000000) scale(0.100000,-0.100000)"
fill="#000000" stroke="none">
<path d="M1450 4055 c0 -213 1 -225 19 -225 10 0 24 -7 31 -15 11 -13 76 -15
472 -15 519 0 595 -6 776 -66 326 -107 524 -330 563 -637 43 -327 -144 -647
-476 -815 -77 -39 -230 -88 -320 -103 -42 -7 -272 -13 -567 -16 l-498 -5 0
-219 c0 -200 2 -220 18 -226 9 -3 25 -12 34 -20 14 -12 101 -14 575 -10 592 5
633 8 843 61 297 76 545 210 730 396 157 157 260 331 317 536 26 92 28 113 28
284 0 172 -2 192 -28 285 -133 477 -515 826 -1057 963 -255 64 -348 71 -952
72 l-508 0 0 -225z"/>
<path d="M2113 1459 c-38 -11 -73 -52 -73 -86 0 -35 39 -68 104 -87 31 -9 59
-23 63 -32 15 -39 -59 -59 -116 -30 -31 17 -55 7 -49 -20 5 -31 66 -56 121
-51 63 5 101 40 101 92 0 46 -17 61 -95 88 -64 22 -87 49 -57 68 18 12 65 11
89 -2 20 -10 49 2 49 22 0 28 -87 53 -137 38z"/>
<path d="M2381 1443 c-48 -25 -73 -63 -79 -121 -9 -100 48 -162 150 -162 45 0
62 5 84 23 46 40 9 79 -40 42 -25 -19 -59 -19 -95 0 -34 17 -41 33 -41 86 0
74 78 115 138 73 28 -19 52 -12 52 15 0 48 -108 76 -169 44z"/>
<path d="M2670 1439 c-44 -27 -57 -44 -71 -94 -12 -44 1 -106 29 -139 44 -49
144 -64 203 -29 98 58 92 214 -11 265 -47 24 -107 23 -150 -3z m145 -64 c19
-18 25 -35 25 -69 0 -37 -5 -48 -31 -70 -17 -14 -42 -26 -55 -26 -64 0 -113
58 -99 119 15 68 111 96 160 46z"/>
<path d="M3160 1450 c-11 -6 -17 -34 -20 -91 l-5 -81 -69 86 c-53 67 -73 86
-90 84 -20 -3 -21 -8 -21 -143 l0 -140 25 0 c24 0 25 2 30 88 l5 88 65 -85
c105 -138 120 -132 120 48 0 138 -8 166 -40 146z"/>
<path d="M3582 1443 c-122 -60 -100 -252 33 -281 78 -17 147 14 182 82 20 38
12 118 -14 154 -42 58 -134 78 -201 45z m143 -69 c37 -40 34 -96 -5 -136 -28
-27 -36 -30 -73 -25 -71 10 -108 78 -75 140 18 35 40 46 86 47 34 0 48 -6 67
-26z"/>
<path d="M1485 1438 c-3 -8 -4 -72 -3 -144 l3 -129 70 -3 c85 -4 105 1 143 33
63 53 63 161 2 220 -29 28 -38 30 -121 33 -69 3 -90 1 -94 -10z m155 -51 c39
-20 55 -62 41 -108 -14 -46 -35 -59 -95 -59 l-46 0 0 90 0 90 38 0 c20 0 48
-6 62 -13z"/>
<path d="M1794 1437 c-2 -7 -3 -71 -2 -143 l3 -129 96 -3 c77 -2 99 0 109 13
24 29 -5 45 -81 45 l-69 0 0 30 c0 29 1 29 62 32 52 2 63 6 66 22 5 26 -15 36
-75 36 -50 0 -53 2 -53 25 0 24 2 25 64 25 67 0 94 15 82 45 -7 20 -194 22
-202 2z"/>
<path d="M3238 1438 c-10 -28 4 -38 53 -38 l49 0 0 -115 c0 -98 3 -117 16
-122 32 -12 44 24 44 133 l0 103 43 3 c34 2 42 7 42 23 0 19 -8 20 -121 23
-92 2 -123 -1 -126 -10z"/>
<path d="M2433 1029 c-57 -36 -33 -75 27 -44 22 12 30 22 28 37 -4 30 -18 31
-55 7z"/>
<path d="M2691 942 c-72 -36 -98 -115 -66 -198 23 -60 61 -84 137 -84 45 0 62
5 84 23 46 40 9 79 -40 42 -25 -19 -59 -19 -95 0 -34 17 -41 33 -41 86 0 54
34 89 86 89 21 0 45 -7 55 -16 23 -20 49 -12 49 16 0 27 -55 60 -100 60 -19 0
-50 -8 -69 -18z"/>
<path d="M2067 943 c-10 -9 -8 -256 2 -271 5 -8 17 -12 27 -10 15 2 20 14 22
56 l3 52 53 0 c63 0 97 19 77 44 -10 11 -30 16 -72 16 -59 0 -59 0 -59 30 l0
30 64 0 c67 0 94 15 82 45 -4 12 -25 15 -99 15 -52 0 -97 -3 -100 -7z"/>
<path d="M2355 820 c-37 -73 -64 -138 -61 -146 9 -23 45 -16 58 11 11 24 16
25 88 25 73 0 77 -1 88 -26 15 -31 56 -31 59 1 2 11 -25 74 -60 140 -85 165
-87 165 -172 -5z m124 -42 c1 -5 -17 -8 -39 -8 -22 0 -40 2 -40 5 0 3 10 25
22 48 l21 42 18 -40 c10 -22 18 -43 18 -47z"/>
<path d="M2924 937 c-2 -7 -3 -71 -2 -142 3 -118 5 -130 22 -133 10 -2 22 2
27 10 10 15 12 238 3 262 -7 19 -43 21 -50 3z"/>
<path d="M3036 935 c-9 -24 -7 -248 2 -263 6 -9 33 -12 98 -10 88 3 89 3 89
28 0 24 -3 25 -67 28 l-67 3 -3 112 c-3 105 -4 112 -24 115 -13 2 -24 -4 -28
-13z"/>
</g>
</svg>
